<?xml version="1.0" encoding="UTF-8"?>
<svg version="1.1" xmlns="http://www.w3.org/2000/svg" width="200" height="200">
<path d="M0 0 C0.05994141 1.12921875 0.05994141 1.12921875 0.12109375 2.28125 C1.15068581 12.75512477 5.50977622 20.19982649 11 29 C11.44988281 28.62488281 11.89976563 28.24976562 12.36328125 27.86328125 C20.15782061 21.66201446 28.37698553 18.26181964 38 16 C37.63167408 43.37042646 37.63167408 43.37042646 33 53 C35.5636947 52.71681868 38.12561526 52.42377507 40.6875 52.125 C41.40873047 52.04636719 42.12996094 51.96773437 42.87304688 51.88671875 C46.91707572 51.40660574 50.23051673 50.6164631 54 49 C54.99 49 55.98 49 57 49 C55.71825881 65.66263541 47.56854253 82.09585129 36 94 C33.44100209 96.18917595 30.82839228 98.17349055 28 100 C28.61488281 100.03738281 29.22976562 100.07476562 29.86328125 100.11328125 C30.67152344 100.17902344 31.47976562 100.24476562 32.3125 100.3125 C33.11300781 100.37050781 33.91351563 100.42851563 34.73828125 100.48828125 C37.47059555 101.10647326 38.37313093 101.73239481 40 104 C41.38488888 108.07280129 40.77332714 110.70688182 39.3125 114.6875 C38.97863281 115.64011719 38.64476562 116.59273438 38.30078125 117.57421875 C37 120 37 120 34.9576416 120.90159607 C32.83161922 121.79554007 32.83161922 121.79554007 32.46203613 123.81263733 C32.41992004 124.8955027 32.41992004 124.8955027 32.37695312 126.00024414 C32.0213727 131.12834067 31.06123827 135.97892714 29.96875 140.99609375 C29.77277222 141.91084976 29.57679443 142.82560577 29.37487793 143.76808167 C28.96347137 145.68365506 28.54991028 147.59876691 28.13427734 149.51342773 C27.49675651 152.45245277 26.86702659 155.39307085 26.23828125 158.33398438 C25.8363929 160.20061894 25.434065 162.06715893 25.03125 163.93359375 C24.74840149 165.25380775 24.74840149 165.25380775 24.45983887 166.60069275 C24.28295532 167.41236404 24.10607178 168.22403534 23.92382812 169.06030273 C23.76918091 169.77484116 23.61453369 170.48937958 23.4552002 171.22557068 C23 173 23 173 22 175 C23.918125 175.185625 23.918125 175.185625 25.875 175.375 C29.75 175.75 29.75 175.75 32 178 C31.625 180.125 31.625 180.125 31 182 C29.08627365 182.49077821 27.16876751 182.96681642 25.25 183.4375 C24.18265625 183.70433594 23.1153125 183.97117188 22.015625 184.24609375 C11.01077841 186.53960578 -0.43692058 186.20182755 -11.625 186.1875 C-12.42070404 186.18722809 -13.21640808 186.18695618 -14.03622437 186.18667603 C-44.002863 186.13950705 -44.002863 186.13950705 -55 181 C-54.75 179.125 -54.75 179.125 -54 177 C-51.06004981 174.97244814 -49.72295997 175 -46 175 C-46.24524414 174.04512695 -46.49048828 173.09025391 -46.74316406 172.10644531 C-49.12633563 162.74855871 -51.29872496 153.36186757 -53.29248047 143.91357422 C-53.75884361 141.70817927 -54.2327666 139.50448901 -54.70703125 137.30078125 C-55.00826193 135.88290791 -55.30906028 134.46494263 -55.609375 133.046875 C-56.0110791 131.15727051 -56.0110791 131.15727051 -56.42089844 129.22949219 C-57 126 -57 126 -57 122 C-57.8971875 121.7215625 -57.8971875 121.7215625 -58.8125 121.4375 C-62.95316464 118.71649181 -63.75807426 113.93544619 -64.9375 109.375 C-65 106 -65 106 -63.6875 103.125 C-59.75839387 100.01826492 -55.89050665 100.10266331 -51 100 C-51.49628906 99.57589844 -51.99257813 99.15179688 -52.50390625 98.71484375 C-54.68740748 96.82965768 -56.84603768 94.91884671 -59 93 C-59.6084375 92.47148438 -60.216875 91.94296875 -60.84375 91.3984375 C-71.62745726 81.44801671 -78.10945291 65.54560246 -79 51 C-76.26667907 51.48235075 -73.75137335 52.08647883 -71.125 53 C-67.75301095 54.0790365 -64.503869 54.53613082 -61 55 C-61.28875 53.98679688 -61.5775 52.97359375 -61.875 51.9296875 C-62.25040295 50.57823687 -62.62538041 49.22666799 -63 47.875 C-63.19078125 47.20984375 -63.3815625 46.5446875 -63.578125 45.859375 C-64.69208455 41.8013795 -65.20950232 38.20314026 -65 34 C-54.86334298 33.83650553 -46.25416254 38.49722498 -38 44 C-37.70867187 43.17757812 -37.41734375 42.35515625 -37.1171875 41.5078125 C-30.88666069 24.54040301 -21.41595312 11.60620959 -6 2 C-3 0 -3 0 0 0 Z " fill="#161509" transform="translate(111,7)"/>
<path d="M0 0 C0.05994141 1.12921875 0.05994141 1.12921875 0.12109375 2.28125 C1.15068581 12.75512477 5.50977622 20.19982649 11 29 C11.44988281 28.62488281 11.89976563 28.24976562 12.36328125 27.86328125 C20.15782061 21.66201446 28.37698553 18.26181964 38 16 C37.63167408 43.37042646 37.63167408 43.37042646 33 53 C35.5636947 52.71681868 38.12561526 52.42377507 40.6875 52.125 C41.40873047 52.04636719 42.12996094 51.96773437 42.87304688 51.88671875 C46.91707572 51.40660574 50.23051673 50.6164631 54 49 C54.99 49 55.98 49 57 49 C55.71825881 65.66263541 47.56854253 82.09585129 36 94 C33.41359237 96.21262447 30.83046249 98.09587069 28 100 C30.97 100.33 33.94 100.66 37 101 C37 101.33 37 101.66 37 102 C32.71 102 28.42 102 24 102 C24.66 101.67 25.32 101.34 26 101 C26.04125 100.13375 26.0825 99.2675 26.125 98.375 C27.096597 94.62741156 27.6779146 94.14603399 30.5625 91.8125 C42.37571416 82.1548276 47.67943015 67.86477907 53 54 C51.88625 54.433125 51.88625 54.433125 50.75 54.875 C42.58584178 57.32424746 34.50085506 58.28336184 26 58 C26 57.34 26 56.68 26 56 C26.45084961 55.55575684 26.90169922 55.11151367 27.36621094 54.65380859 C33.33841823 48.60842124 33.6327268 39.36023877 33.75 31.375 C33.79447266 29.86873047 33.79447266 29.86873047 33.83984375 28.33203125 C33.9096748 25.88794463 33.9627929 23.44476321 34 21 C26.39299474 23.37764732 19.58163721 26.08086845 14 32 C12.57119656 35.7190913 13.49124655 37.39575565 15 41 C16.19831175 46.99155876 16.09896801 52.91896545 16 59 C15.67 59 15.34 59 15 59 C14.89042969 58.14277344 14.78085938 57.28554687 14.66796875 56.40234375 C13.79618342 50.11556658 12.81702636 44.74239989 10 39 C9.4336735 37.48058743 8.87158552 35.95959187 8.3125 34.4375 C6.28910398 29.30421516 3.63149806 24.64041212 0.81762695 19.90991211 C-2.02222929 15.11384735 -4 11.62869494 -4 6 C-6.69869028 7.9594214 -9.35343872 9.97081837 -12 12 C-12.65871094 12.48339844 -13.31742187 12.96679688 -13.99609375 13.46484375 C-25.06703114 22.21912623 -32.9820074 37.12895613 -35 51 C-35.42555577 55.32892936 -35.74497603 59.65788134 -36 64 C-35.34 64 -34.68 64 -34 64 C-34 64.66 -34 65.32 -34 66 C-37.73487777 65.5020163 -39.81237635 65.12508244 -43 63 C-53.12641251 60.26041815 -63.66560233 58.7641042 -74 57 C-67.93112535 74.34579067 -60.5800038 88.29083251 -45 99 C-44.42773682 99.51030762 -43.85547363 100.02061523 -43.26586914 100.54638672 C-40.35421301 102.41428895 -38.36538536 102.42731899 -34.921875 102.51171875 C-33.18164062 102.56489258 -33.18164062 102.56489258 -31.40625 102.61914062 C-30.1996875 102.64169922 -28.993125 102.66425781 -27.75 102.6875 C-26.52796875 102.72166016 -25.3059375 102.75582031 -24.046875 102.79101562 C-21.03134154 102.87347162 -18.01609806 102.94263201 -15 103 C-15 103.33 -15 103.66 -15 104 C-29.52 104.33 -44.04 104.66 -59 105 C-60.4714259 110.37265095 -60.4714259 110.37265095 -58 117 C-27.64 117.33 2.72 117.66 34 118 C34.33 115.69 34.66 113.38 35 111 C37.5625 108.0625 37.5625 108.0625 40 106 C41.23200067 109.69600202 40.60662485 110.94953433 39.3125 114.5625 C38.97863281 115.53316406 38.64476562 116.50382812 38.30078125 117.50390625 C37 120 37 120 34.9576416 120.9059906 C32.83125429 121.79541323 32.83125429 121.79541323 32.46203613 123.81263733 C32.41992004 124.8955027 32.41992004 124.8955027 32.37695312 126.00024414 C32.0213727 131.12834067 31.06123827 135.97892714 29.96875 140.99609375 C29.77277222 141.91084976 29.57679443 142.82560577 29.37487793 143.76808167 C28.96347137 145.68365506 28.54991028 147.59876691 28.13427734 149.51342773 C27.49675651 152.45245277 26.86702659 155.39307085 26.23828125 158.33398438 C25.8363929 160.20061894 25.434065 162.06715893 25.03125 163.93359375 C24.74840149 165.25380775 24.74840149 165.25380775 24.45983887 166.60069275 C24.28295532 167.41236404 24.10607178 168.22403534 23.92382812 169.06030273 C23.76918091 169.77484116 23.61453369 170.48937958 23.4552002 171.22557068 C23 173 23 173 22 175 C23.918125 175.185625 23.918125 175.185625 25.875 175.375 C29.75 175.75 29.75 175.75 32 178 C31.625 180.125 31.625 180.125 31 182 C29.08627365 182.49077821 27.16876751 182.96681642 25.25 183.4375 C24.18265625 183.70433594 23.1153125 183.97117188 22.015625 184.24609375 C11.01077841 186.53960578 -0.43692058 186.20182755 -11.625 186.1875 C-12.42070404 186.18722809 -13.21640808 186.18695618 -14.03622437 186.18667603 C-44.002863 186.13950705 -44.002863 186.13950705 -55 181 C-54.75 179.125 -54.75 179.125 -54 177 C-51.06004981 174.97244814 -49.72295997 175 -46 175 C-46.24524414 174.04512695 -46.49048828 173.09025391 -46.74316406 172.10644531 C-49.12633563 162.74855871 -51.29872496 153.36186757 -53.29248047 143.91357422 C-53.75884361 141.70817927 -54.2327666 139.50448901 -54.70703125 137.30078125 C-55.00826193 135.88290791 -55.30906028 134.46494263 -55.609375 133.046875 C-56.0110791 131.15727051 -56.0110791 131.15727051 -56.42089844 129.22949219 C-57 126 -57 126 -57 122 C-57.8971875 121.7215625 -57.8971875 121.7215625 -58.8125 121.4375 C-62.95316464 118.71649181 -63.75807426 113.93544619 -64.9375 109.375 C-65 106 -65 106 -63.6875 103.125 C-59.75839387 100.01826492 -55.89050665 100.10266331 -51 100 C-51.49628906 99.57589844 -51.99257813 99.15179688 -52.50390625 98.71484375 C-54.68740748 96.82965768 -56.84603768 94.91884671 -59 93 C-59.6084375 92.47148438 -60.216875 91.94296875 -60.84375 91.3984375 C-71.62745726 81.44801671 -78.10945291 65.54560246 -79 51 C-76.26667907 51.48235075 -73.75137335 52.08647883 -71.125 53 C-67.75301095 54.0790365 -64.503869 54.53613082 -61 55 C-61.28875 53.98679688 -61.5775 52.97359375 -61.875 51.9296875 C-62.25040295 50.57823687 -62.62538041 49.22666799 -63 47.875 C-63.19078125 47.20984375 -63.3815625 46.5446875 -63.578125 45.859375 C-64.69208455 41.8013795 -65.20950232 38.20314026 -65 34 C-54.86334298 33.83650553 -46.25416254 38.49722498 -38 44 C-37.70867187 43.17757812 -37.41734375 42.35515625 -37.1171875 41.5078125 C-30.88666069 24.54040301 -21.41595312 11.60620959 -6 2 C-3 0 -3 0 0 0 Z " fill="#0D0B06" transform="translate(111,7)"/>
<path d="M0 0 C27.39 0 54.78 0 83 0 C81.68 6.6 80.36 13.2 79 20 C78.33484375 23.51333984 78.33484375 23.51333984 77.65625 27.09765625 C77.27108288 29.08598586 76.88567688 31.07426921 76.5 33.0625 C76.31308594 34.09181641 76.12617188 35.12113281 75.93359375 36.18164062 C75.73894531 37.16455078 75.54429687 38.14746094 75.34375 39.16015625 C75.18068359 40.02261963 75.01761719 40.88508301 74.84960938 41.77368164 C73.78351326 44.56728236 72.52490133 45.46458703 70 47 C67.703125 47.87890625 67.703125 47.87890625 65.25 48.5625 C64.45078125 48.79066406 63.6515625 49.01882812 62.828125 49.25390625 C61.89484375 49.50011719 60.9615625 49.74632812 60 50 C58.16501953 50.53367187 58.16501953 50.53367187 56.29296875 51.078125 C51.5404739 52.25478951 46.93532082 52.25801302 42.0625 52.1875 C41.22009766 52.18685547 40.37769531 52.18621094 39.50976562 52.18554688 C31.4382966 52.12962446 23.79145779 51.64925665 16.125 48.9375 C15.03445312 48.57527344 13.94390625 48.21304688 12.8203125 47.83984375 C5.92553341 43.3420031 5.43196235 31.71492353 3.78295898 24.05419922 C3.31169374 21.87126537 2.82736492 19.69151033 2.34179688 17.51171875 C2.03567273 16.10954628 1.73030777 14.70720781 1.42578125 13.3046875 C1.01453003 11.4172583 1.01453003 11.4172583 0.5949707 9.49169922 C0 6 0 6 0 0 Z " fill="#F7CB54" transform="translate(58,128)"/>
<path d="M0 0 C0.268125 0.77601562 0.53625 1.55203125 0.8125 2.3515625 C3.10004105 8.65735001 5.61345792 14.32851761 9.0625 20.0625 C12.29218404 25.43578629 14.53584171 30.75171379 16.30859375 36.76953125 C16.79458476 38.94993107 16.79458476 38.94993107 18 40 C18.89376419 45.26850469 19.08623733 49.79445684 18 55 C15.27617175 58.03894626 12.50917802 59.91592143 9.05859375 62.078125 C4.16698718 65.15177817 1.17295248 69.03111548 -1.75 73.9375 C-2.1625 74.618125 -2.575 75.29875 -3 76 C-3.66 76 -4.32 76 -5 76 C-9.03464702 66.57981968 -9.52053998 57.25074576 -9.6875 47.125 C-9.73068359 45.86534424 -9.77386719 44.60568848 -9.81835938 43.30786133 C-9.82831809 37.06167064 -9.6652897 32.94633654 -5.45703125 28.1171875 C-4.33535796 27.04508861 -3.19295875 25.99216754 -2 25 C-3.98 26.32 -5.96 27.64 -8 29 C-8.33 28.34 -8.66 27.68 -9 27 C-9.66 31.95 -10.32 36.9 -11 42 C-13 42 -13 42 -15.5625 39.5 C-16.366875 38.675 -17.17125 37.85 -18 37 C-18.33 37 -18.66 37 -19 37 C-18.4225 37.40347656 -17.845 37.80695312 -17.25 38.22265625 C-13.23269907 41.50763669 -11.19303948 43.59336674 -10.46875 48.87109375 C-10.41206739 52.60107507 -10.65196803 56.28765894 -11 60 C-11.99 60 -12.98 60 -14 60 C-13.195625 60.515625 -12.39125 61.03125 -11.5625 61.5625 C-8.33552922 64.63205757 -8.25103743 66.64868459 -8 71 C-17.70933263 68.2692502 -23.72028827 58.93931713 -29 51 C-31.50192553 45.99614893 -31.04433548 39.18703709 -29.33935547 33.98388672 C-25.27824242 24.10976181 -12.49596535 0 0 0 Z " fill="#79BC25" transform="translate(107,13)"/>
<path d="M0 0 C-4.3959687 19.04919769 -15.36244712 34.83657894 -31.09765625 46.24609375 C-35.94481924 48.91801187 -41.05099267 48.43223707 -46.4375 48.25 C-47.45521484 48.23195312 -48.47292969 48.21390625 -49.52148438 48.1953125 C-52.01531655 48.14847997 -54.50715047 48.08291427 -57 48 C-53.92755498 39.15508252 -46.11767042 32.75693931 -39 27 C-38.05125 26.21625 -37.1025 25.4325 -36.125 24.625 C-31.83612619 22.39478562 -27.77719073 22.18882177 -23 22 C-24.65 21.67 -26.3 21.34 -28 21 C-24.17058011 17.67006966 -19.62477778 15.94675475 -15 14 C-24.98382344 16.82874997 -33.52123634 22.11196968 -42 28 C-42 26.68 -42 25.36 -42 24 C-42.474375 25.11375 -42.94875 26.2275 -43.4375 27.375 C-45.82202133 32.1953227 -49.22120517 35.77098195 -52.890625 39.65625 C-54.64313084 41.60347871 -55.95331351 43.37174151 -57.25 45.625 C-57.8275 46.40875 -58.405 47.1925 -59 48 C-61.609375 48.1484375 -61.609375 48.1484375 -64 48 C-64.19233277 35.82808321 -57.65363421 25.77836493 -49.44140625 17.21875 C-36.81407359 5.74303008 -16.9976029 0 0 0 Z " fill="#79BB25" transform="translate(164,61)"/>
<path d="M0 0 C0.05994141 1.12921875 0.05994141 1.12921875 0.12109375 2.28125 C1.15068581 12.75512477 5.50977622 20.19982649 11 29 C11.44988281 28.62488281 11.89976563 28.24976562 12.36328125 27.86328125 C20.15782061 21.66201446 28.37698553 18.26181964 38 16 C37.63167408 43.37042646 37.63167408 43.37042646 33 53 C35.5636947 52.71681868 38.12561526 52.42377507 40.6875 52.125 C41.40873047 52.04636719 42.12996094 51.96773437 42.87304688 51.88671875 C46.91707572 51.40660574 50.23051673 50.6164631 54 49 C54.99 49 55.98 49 57 49 C55.71825881 65.66263541 47.56854253 82.09585129 36 94 C33.41359237 96.21262447 30.83046249 98.09587069 28 100 C30.97 100.33 33.94 100.66 37 101 C37 101.33 37 101.66 37 102 C32.71 102 28.42 102 24 102 C24.66 101.67 25.32 101.34 26 101 C26.04125 100.13375 26.0825 99.2675 26.125 98.375 C27.096597 94.62741156 27.6779146 94.14603399 30.5625 91.8125 C42.37571416 82.1548276 47.67943015 67.86477907 53 54 C52.2575 54.28875 51.515 54.5775 50.75 54.875 C42.58584178 57.32424746 34.50085506 58.28336184 26 58 C26 57.34 26 56.68 26 56 C26.45084961 55.55575684 26.90169922 55.11151367 27.36621094 54.65380859 C33.33841823 48.60842124 33.6327268 39.36023877 33.75 31.375 C33.79447266 29.86873047 33.79447266 29.86873047 33.83984375 28.33203125 C33.9096748 25.88794463 33.9627929 23.44476321 34 21 C26.39299474 23.37764732 19.58163721 26.08086845 14 32 C12.57119656 35.7190913 13.49124655 37.39575565 15 41 C16.19831175 46.99155876 16.09896801 52.91896545 16 59 C15.67 59 15.34 59 15 59 C14.89042969 58.14277344 14.78085938 57.28554687 14.66796875 56.40234375 C13.79618342 50.11556658 12.81702636 44.74239989 10 39 C9.4336735 37.48058743 8.87158552 35.95959187 8.3125 34.4375 C6.28910398 29.30421516 3.63149806 24.64041212 0.81762695 19.90991211 C-2.02222929 15.11384735 -4 11.62869494 -4 6 C-6.69869028 7.9594214 -9.35343872 9.97081837 -12 12 C-12.65871094 12.48339844 -13.31742188 12.96679688 -13.99609375 13.46484375 C-25.06703114 22.21912623 -32.9820074 37.12895613 -35 51 C-35.42555577 55.32892936 -35.74497603 59.65788134 -36 64 C-35.34 64 -34.68 64 -34 64 C-34 64.66 -34 65.32 -34 66 C-37.73487777 65.5020163 -39.81237635 65.12508244 -43 63 C-45.23378066 62.41349226 -47.48752669 61.90116138 -49.75 61.4375 C-50.94109375 61.18871094 -52.1321875 60.93992188 -53.359375 60.68359375 C-56.89724241 60.01929461 -60.43290681 59.48018562 -64 59 C-63.46761719 58.66613281 -62.93523438 58.33226562 -62.38671875 57.98828125 C-60.58920351 55.90269173 -60.58920351 55.90269173 -61.58203125 52.41796875 C-61.97474815 51.00285666 -62.38571295 49.5927123 -62.8125 48.1875 C-64.235477 43.31705823 -65.28255307 39.14246583 -65 34 C-54.86334298 33.83650553 -46.25416254 38.49722498 -38 44 C-37.70867187 43.17757812 -37.41734375 42.35515625 -37.1171875 41.5078125 C-30.88666069 24.54040301 -21.41595312 11.60620959 -6 2 C-3 0 -3 0 0 0 Z " fill="#0D1107" transform="translate(111,7)"/>
<path d="M0 0 C5.67849086 0.58434833 11.34053957 1.25353669 17 2 C18.84078125 2.23976563 18.84078125 2.23976563 20.71875 2.484375 C34.10611858 4.75654306 46.6079926 12.25264748 55 23 C57.31878709 26.52797054 59.50716568 30.04074375 61 34 C60.02391783 36.92824652 58.89213369 38.61426621 57 41 C50.65340899 38.30527574 44.72346053 32.48271994 41.68359375 26.33984375 C40.875 23.875 40.875 23.875 40 20 C40 21.98 40 23.96 40 26 C36.4330915 23.96699952 32.87044739 21.9282465 29.32421875 19.859375 C28.72416016 19.51132813 28.12410156 19.16328125 27.50585938 18.8046875 C26.27221965 18.08914996 25.04050462 17.37028575 23.81054688 16.6484375 C20.61509343 14.65334558 20.61509343 14.65334558 17 14 C19.64 15.32 22.28 16.64 25 18 C24.34 18.66 23.68 19.32 23 20 C24.258125 20.165 25.51625 20.33 26.8125 20.5 C37.79671627 22.97919615 48.86380083 33.49637104 54.78125 42.80078125 C55.1834375 43.52652344 55.585625 44.25226563 56 45 C32.32092375 46.48190151 32.32092375 46.48190151 25.5 41.5 C23.94894477 40.05285534 22.44417266 38.55382281 21 37 C20.28328125 36.36449219 19.5665625 35.72898438 18.828125 35.07421875 C9.00943062 26.1598778 1.82581358 13.1497425 0 0 Z " fill="#78BA25" transform="translate(37,64)"/>
<path d="M0 0 C31.68 0 63.36 0 96 0 C97 5 97 5 94 13 C63.64 13 33.28 13 2 13 C-1 5 -1 5 0 0 Z " fill="#D1916A" transform="translate(51,112)"/>
<path d="M0 0 C27.39 0 54.78 0 83 0 C82.67 1.98 82.34 3.96 82 6 C81.505 5.01 81.505 5.01 81 4 C56.58 4 32.16 4 7 4 C12.95834613 20.88198069 18.48015865 35.75551843 35 44 C40.33751976 46.27956573 45.23462991 46.30057978 50.9375 46.25 C51.80568359 46.25773437 52.67386719 46.26546875 53.56835938 46.2734375 C58.79161099 46.25764536 63.04053382 45.6108752 68 44 C70.9375 43.875 70.9375 43.875 73 44 C70.66914655 46.7080142 68.73559723 47.62208867 65.3125 48.5625 C64.50425781 48.79066406 63.69601563 49.01882812 62.86328125 49.25390625 C61.91839844 49.50011719 60.97351563 49.74632812 60 50 C58.16308594 50.53367187 58.16308594 50.53367187 56.2890625 51.078125 C51.53802158 52.25539882 46.9340239 52.25799425 42.0625 52.1875 C41.22009766 52.18685547 40.37769531 52.18621094 39.50976562 52.18554688 C31.4382966 52.12962446 23.79145779 51.64925665 16.125 48.9375 C15.03445312 48.57527344 13.94390625 48.21304688 12.8203125 47.83984375 C5.92553341 43.3420031 5.43196235 31.71492353 3.78295898 24.05419922 C3.31169374 21.87126537 2.82736492 19.69151033 2.34179688 17.51171875 C2.03567273 16.10954628 1.73030777 14.70720781 1.42578125 13.3046875 C1.01453003 11.4172583 1.01453003 11.4172583 0.5949707 9.49169922 C0 6 0 6 0 0 Z " fill="#DCA437" transform="translate(58,128)"/>
<path d="M0 0 C1.58941406 0.01353516 1.58941406 0.01353516 3.2109375 0.02734375 C4.00757813 0.03894531 4.80421875 0.05054688 5.625 0.0625 C2.73633189 4.06219431 -0.24846465 6.40317722 -4.375 9.0625 C-4.705 9.7225 -5.035 10.3825 -5.375 11.0625 C-7.85810773 12.3749998 -10.33961864 13.60961503 -12.875 14.8125 C-19.04181257 17.80529862 -24.8322668 20.99782898 -30.375 25.0625 C-30.375 23.7425 -30.375 22.4225 -30.375 21.0625 C-30.849375 22.17625 -31.32375 23.29 -31.8125 24.4375 C-34.19702133 29.2578227 -37.59620517 32.83348195 -41.265625 36.71875 C-43.01813084 38.66597871 -44.32831351 40.43424151 -45.625 42.6875 C-46.2025 43.47125 -46.78 44.255 -47.375 45.0625 C-49.984375 45.2109375 -49.984375 45.2109375 -52.375 45.0625 C-52.56733277 32.89058321 -46.02863421 22.84086493 -37.81640625 14.28125 C-27.30708059 4.73037484 -14.16727145 -0.15741413 0 0 Z " fill="#96C938" transform="translate(152.375,63.9375)"/>
<path d="M0 0 C17.66009334 -0.79206399 31.06823527 3.19212099 44.734375 14.203125 C50.09919835 19.20789309 54.39636129 25.09469734 57 32 C56.02391783 34.92824652 54.89213369 36.61426621 53 39 C46.65340899 36.30527574 40.72346053 30.48271994 37.68359375 24.33984375 C36.875 21.875 36.875 21.875 36 18 C36 19.98 36 21.96 36 24 C34.98550781 23.41863281 33.97101563 22.83726563 32.92578125 22.23828125 C30.49267937 20.84715112 28.05295648 19.47144292 25.60546875 18.10546875 C6.93531283 7.62884411 6.93531283 7.62884411 0 0 Z " fill="#96C937" transform="translate(41,66)"/>
<path d="M0 0 C1.13591756 26.18552109 1.13591756 26.18552109 -5 34 C-8.82617667 36.74734227 -12.29850052 38 -17 38 C-17.79086751 30.29636463 -16.78305087 25.43815865 -12.60546875 18.8984375 C-11 17 -11 17 -8 16 C-8.33 15.01 -8.66 14.02 -9 13 C-9.99 13.66 -10.98 14.32 -12 15 C-12.33 14.67 -12.66 14.34 -13 14 C-13.268125 15.258125 -13.53625 16.51625 -13.8125 17.8125 C-14.51858854 21.12568467 -15.43240279 22.77005941 -18 25 C-18.70133599 23.42274653 -19.385583 21.83788667 -20.0625 20.25 C-20.63677734 18.92742188 -20.63677734 18.92742188 -21.22265625 17.578125 C-22.06656988 14.77921547 -22.1512212 13.65451491 -21 11 C-16.03714684 5.0658239 -7.7352311 0 0 0 Z " fill="#79BA26" transform="translate(145,28)"/>
<path d="M0 0 C-4.3959687 19.04919769 -15.36244712 34.83657894 -31.09765625 46.24609375 C-35.94481924 48.91801187 -41.05099267 48.43223707 -46.4375 48.25 C-47.45521484 48.23195312 -48.47292969 48.21390625 -49.52148438 48.1953125 C-52.01531655 48.14847997 -54.50715047 48.08291427 -57 48 C-55.25 43.125 -55.25 43.125 -53 42 C-51.96617188 42.04253906 -50.93234375 42.08507812 -49.8671875 42.12890625 C-45.31210897 41.9770703 -42.21468704 40.81341738 -38.125 38.9375 C-37.07119141 38.46268188 -37.07119141 38.46268188 -35.99609375 37.97827148 C-30.35053164 35.3439802 -25.58427441 32.24367571 -21 28 C-20.31679687 27.39542969 -19.63359375 26.79085937 -18.9296875 26.16796875 C-13.51003279 21.10893745 -9.7333536 15.37032993 -6 9 C-5.56300781 8.25492188 -5.12601563 7.50984375 -4.67578125 6.7421875 C-3.76878312 5.17005741 -2.88144374 3.58659874 -2 2 C-2.99 2.33 -3.98 2.66 -5 3 C-6.39439664 3.06665376 -7.79169875 3.08538199 -9.1875 3.0625 C-11.0746875 3.0315625 -11.0746875 3.0315625 -13 3 C-13 2.67 -13 2.34 -13 2 C-11.20873548 1.66451233 -9.41697413 1.33167645 -7.625 1 C-6.62726563 0.814375 -5.62953125 0.62875 -4.6015625 0.4375 C-2 0 -2 0 0 0 Z " fill="#4E9914" transform="translate(164,61)"/>
<path d="M0 0 C8.25 0 16.5 0 25 0 C25 9.35135135 25 9.35135135 21 14 C18.07327328 16.37302167 16.31690796 16.95966626 12.5625 17.4375 C7.36363233 16.79904257 4.44661514 14.73593816 1.125 10.75 C0 8 0 8 0 0 Z " fill="#97102D" transform="translate(87,155)"/>
<path d="M0 0 C1.65 0 3.3 0 5 0 C5.99 2.97 6.98 5.94 8 9 C19.04807784 9.02313508 30.09614995 9.04092106 41.14424706 9.05181217 C46.27390776 9.05703844 51.40355194 9.06413146 56.53320312 9.07543945 C61.48039539 9.0862774 66.42757172 9.09227877 71.37477493 9.09487724 C73.26548132 9.09672985 75.15618681 9.10034733 77.04688644 9.10573006 C79.68801533 9.1129525 82.32907773 9.11399043 84.97021484 9.11352539 C85.75783707 9.11712067 86.54545929 9.12071594 87.35694885 9.12442017 C91.30741539 9.20105226 91.30741539 9.20105226 95 8 C94.67 9.65 94.34 11.3 94 13 C63.64 13 33.28 13 2 13 C-1.375 4 -1.375 4 0 0 Z " fill="#AA5E3F" transform="translate(51,112)"/>
<path d="M0 0 C0.66 0 1.32 0 2 0 C2.268125 0.77601562 2.53625 1.55203125 2.8125 2.3515625 C5.10004105 8.65735001 7.61345792 14.32851761 11.0625 20.0625 C14.29218404 25.43578629 16.53584171 30.75171379 18.30859375 36.76953125 C18.79458476 38.94993107 18.79458476 38.94993107 20 40 C20.89376419 45.26850469 21.08623733 49.79445684 20 55 C17.27617175 58.03894626 14.50917802 59.91592143 11.05859375 62.078125 C6.16698718 65.15177817 3.17295248 69.03111548 0.25 73.9375 C-0.1625 74.618125 -0.575 75.29875 -1 76 C-1.66 76 -2.32 76 -3 76 C-3.8125 73.8125 -3.8125 73.8125 -4 71 C-1.9375 68.6875 -1.9375 68.6875 1 66 C9.32969691 56.14035876 12.9634194 46.96603282 12.2265625 33.99121094 C11.25350514 25.4392111 6.41301257 17.84435789 2.2265625 10.5234375 C0.48799144 6.94663208 0.14902097 3.9490556 0 0 Z " fill="#4D9612" transform="translate(105,13)"/>
<path d="M0 0 C7.8668757 0.35758526 15.16437365 4.04509983 21.34765625 8.80859375 C23.56304153 11.74672884 23.40801336 13.61569272 23.25 17.25 C23.21390625 18.32765625 23.1778125 19.4053125 23.140625 20.515625 C23.07101563 21.74539062 23.07101563 21.74539062 23 23 C21.72125 22.71125 20.4425 22.4225 19.125 22.125 C14.09828073 21.00617536 9.05314632 19.9916404 4 19 C-0.59225513 6.51480638 -0.59225513 6.51480638 0 0 Z " fill="#6AA41F" transform="translate(50,45)"/>
<path d="M0 0 C2.68231841 2.48362815 4.66079509 5.25825857 6.75 8.25 C15.4276724 20.21920331 26.23338903 28.80123822 41 32 C43.42074675 32.02529138 45.67182822 31.92596607 48.0625 31.5546875 C50 32 50 32 52.25 35.0078125 C52.8275 35.99523437 53.405 36.98265625 54 38 C30.32092375 39.48190151 30.32092375 39.48190151 23.5 34.5 C21.94894477 33.05285534 20.44417266 31.55382281 19 30 C18.28328125 29.36449219 17.5665625 28.72898437 16.828125 28.07421875 C9.15827538 21.11080264 3.45013385 11.75037827 0 2 C0 1.34 0 0.68 0 0 Z " fill="#4E9813" transform="translate(39,71)"/>
<path d="M0 0 C0.83015625 0.28875 1.6603125 0.5775 2.515625 0.875 C11.84080073 3.68425796 20.57333432 4.38525445 30.3125 4.375 C32.08125488 4.37693359 32.08125488 4.37693359 33.88574219 4.37890625 C43.61354644 4.25870872 52.71788128 2.88777027 62 0 C62 1.65 62 3.3 62 5 C52.6759861 10.12820764 43.81152851 10.34572165 33.41943359 10.31567383 C31.13720761 10.31251689 28.85628489 10.33601552 26.57421875 10.36132812 C6.81393594 10.4494162 6.81393594 10.4494162 0 4 C0 2.68 0 1.36 0 0 Z " fill="#A0593C" transform="translate(68,177)"/>
<path d="M0 0 C0.66 0.33 1.32 0.66 2 1 C1.50121338 1.41000244 1.00242676 1.82000488 0.48852539 2.24243164 C-3.98279748 6.48909862 -5.50397927 9.60616864 -5.75390625 15.80859375 C-5.72618649 18.35221172 -5.6613995 20.89565428 -5.5625 23.4375 C-5.54767578 24.70916016 -5.53285156 25.98082031 -5.51757812 27.29101562 C-5.37938071 34.12647261 -4.72430028 40.39749749 -3 47 C-2.73469845 48.61949296 -2.49471044 50.24406722 -2.3125 51.875 C-2.22613281 52.59429687 -2.13976562 53.31359375 -2.05078125 54.0546875 C-2 56 -2 56 -3 59 C-3.66 59 -4.32 59 -5 59 C-6.12913312 57.18564097 -7.17764964 55.32085937 -8.1875 53.4375 C-12.57028049 45.7631251 -16.45900411 41.19568817 -24.4375 37.375 C-27.01171875 35.9375 -27.01171875 35.9375 -29 34 C-30.32488003 28.14417665 -30.11621261 22.2362589 -27 17 C-26.9484375 17.59425781 -26.896875 18.18851563 -26.84375 18.80078125 C-25.38936577 29.42770238 -18.85656378 36.90220127 -10.859375 43.66015625 C-8.97990441 45.01448065 -7.09976087 46.02909287 -5 47 C-6.75847468 40.58153032 -6.75847468 40.58153032 -11.6875 36.5 C-12.780625 36.005 -13.87375 35.51 -15 35 C-12 34 -12 34 -9.8125 34.9375 C-8.9153125 35.4634375 -8.9153125 35.4634375 -8 36 C-7.66147306 26.90258767 -7.66147306 26.90258767 -10.51953125 18.55078125 C-12.26519577 16.85656789 -14.03289634 15.4259354 -16 14 C-17.01596042 13.01621932 -18.02123725 12.02079551 -19 11 C-15.56072421 12.2419607 -12.74792181 13.55740284 -10 16 C-10 16.66 -10 17.32 -10 18 C-9.34 18 -8.68 18 -8 18 C-8.02320312 17.443125 -8.04640625 16.88625 -8.0703125 16.3125 C-8.20011024 10.82390985 -7.53328434 6.2706649 -6 1 C-5.34 1.99 -4.68 2.98 -4 4 C-2.68 2.68 -1.36 1.36 0 0 Z " fill="#4A8D11" transform="translate(104,37)"/>
<path d="M0 0 C2.4375 1.625 2.4375 1.625 4 4 C4.72125695 8.40768137 4.52001338 10.25937488 1.9375 13.9375 C-1.74062512 16.52001338 -3.59231863 16.72125695 -8 16 C-10.4375 14.5625 -10.4375 14.5625 -12 12 C-12.60873844 8.87016555 -12.65247963 6.125034 -12 3 C-8.42324245 -1.55223688 -5.38017918 -1.56514303 0 0 Z " fill="#110F07" transform="translate(88,137)"/>
<path d="M0 0 C3.74225404 1.1566967 5.28964665 1.79776291 7.4375 5.0625 C8.15875695 9.47018137 7.95751338 11.32187488 5.375 15 C2.4375 17.0625 2.4375 17.0625 -1.125 17.6875 C-4.5625 17.0625 -4.5625 17.0625 -7 15 C-8.97393691 11.28899861 -9.22944827 9.21240033 -8.5625 5.0625 C-5.90798953 1.20139386 -4.7398766 0.08315573 0 0 Z " fill="#14110B" transform="translate(115.5625,135.9375)"/>
<path d="M0 0 C6.56898739 -0.10595141 11.70990975 1.46797021 17.5 4.375 C18.11117676 4.67929932 18.72235352 4.98359863 19.35205078 5.29711914 C22.48972309 6.94336353 23.99466918 7.99200378 26 11 C21.96552954 11.27279338 19.64440421 10.5702298 16.125 8.625 C12.10063744 6.49835332 8.41795827 5.05646828 4 4 C4.28484846 5.73030291 4.57819938 7.45920714 4.875 9.1875 C5.03742187 10.15042969 5.19984375 11.11335938 5.3671875 12.10546875 C5.91918692 15.01073759 5.91918692 15.01073759 7.0703125 17.67578125 C8 20 8 20 8 23 C8.96099609 23.07347656 8.96099609 23.07347656 9.94140625 23.1484375 C23.30342577 24.30342577 23.30342577 24.30342577 27 28 C27 28.99 27 29.98 27 31 C26.46375 30.81824219 25.9275 30.63648437 25.375 30.44921875 C17.38197014 27.88566477 9.25152904 26.4435057 1 25 C1.53238281 24.66613281 2.06476562 24.33226563 2.61328125 23.98828125 C4.41079649 21.90269173 4.41079649 21.90269173 3.41796875 18.41796875 C3.02525185 17.00285666 2.61428705 15.5927123 2.1875 14.1875 C0.764523 9.31705823 -0.28255307 5.14246583 0 0 Z " fill="#0D1205" transform="translate(46,41)"/>
<path d="M0 0 C1.79236067 0.47656412 3.58386897 0.95633498 5.375 1.4375 C6.37273437 1.70433594 7.37046875 1.97117188 8.3984375 2.24609375 C11 3 11 3 13 4 C28.07519203 6.52193972 42.5114799 5.59572166 57 1 C58.66132197 0.64097606 60.32650566 0.29716255 62 0 C62.495 2.475 62.495 2.475 63 5 C62.505 4.01 62.505 4.01 62 3 C61.28714844 3.27714844 60.57429688 3.55429688 59.83984375 3.83984375 C58.88207031 4.20207031 57.92429688 4.56429687 56.9375 4.9375 C55.99777344 5.29714844 55.05804688 5.65679687 54.08984375 6.02734375 C46.30668982 8.4774137 38.40596755 8.21586835 30.3125 8.25 C29.10916016 8.270625 27.90582031 8.29125 26.66601562 8.3125 C17.35587499 8.35273832 8.31984122 7.49351929 0 3 C-0.33 3.66 -0.66 4.32 -1 5 C-0.67 3.35 -0.34 1.7 0 0 Z " fill="#0D0704" transform="translate(68,174)"/>
<path d="M0 0 C16.68707339 -0.9194918 30.10508349 3.73126754 42.8046875 14.34375 C47.10190112 18.45780369 50.55629705 22.55720706 53 28 C52.67 28.66 52.34 29.32 52 30 C51.61070313 29.443125 51.22140625 28.88625 50.8203125 28.3125 C43.90979209 18.88616801 35.66214923 12.67812129 25 8 C23.94039062 7.505 22.88078125 7.01 21.7890625 6.5 C17.51306681 4.67552123 13.10078459 3.75233815 8.5625 2.8125 C7.73556641 2.63525391 6.90863281 2.45800781 6.05664062 2.27539062 C4.03911113 1.84389588 2.01973604 1.4210455 0 1 C0 0.67 0 0.34 0 0 Z " fill="#C9ED82" transform="translate(43,66)"/>
<path d="M0 0 C-3.16256397 2.10837598 -5.80800373 2.97900679 -9.4375 4.0625 C-10.57058594 4.40410156 -11.70367187 4.74570313 -12.87109375 5.09765625 C-15.24061025 5.78099996 -17.60183634 6.42844748 -20 7 C-20 7.66 -20 8.32 -20 9 C-20.87785156 9.41121094 -21.75570312 9.82242188 -22.66015625 10.24609375 C-31.93466535 15.11656695 -38.58103107 22.14100301 -44 31 C-45 28 -45 28 -44.06640625 25.80078125 C-36.42433292 13.15662356 -25.92406585 4.28178168 -11.40234375 0.421875 C-7.54374868 -0.25573194 -3.90865125 -0.18912829 0 0 Z " fill="#C7EA80" transform="translate(149,65)"/>
<path d="M0 0 C0 1.65 0 3.3 0 5 C-8.66746429 9.76710536 -16.31696844 10.2825462 -26 10.125 C-27.06089844 10.11597656 -28.12179688 10.10695312 -29.21484375 10.09765625 C-31.81013638 10.07427524 -34.40494465 10.04150556 -37 10 C-36.67 9.01 -36.34 8.02 -36 7 C-26.43 6.01 -16.86 5.02 -7 4 C-7 3.34 -7 2.68 -7 2 C-2.25 0 -2.25 0 0 0 Z " fill="#C0825F" transform="translate(130,177)"/>
<path d="M0 0 C0.99 0.33 1.98 0.66 3 1 C2.03900391 1.89138672 2.03900391 1.89138672 1.05859375 2.80078125 C-11.36493369 14.70589026 -18.4034483 28.24533235 -22 45 C-22.33 45 -22.66 45 -23 45 C-23.05429959 43.25034642 -23.09292823 41.50020213 -23.125 39.75 C-23.15980469 38.28820313 -23.15980469 38.28820313 -23.1953125 36.796875 C-22.99505354 33.92916664 -22.36959506 32.47360324 -21 30 C-20.814375 28.865625 -20.62875 27.73125 -20.4375 26.5625 C-17.81527721 15.66706267 -8.35987226 6.7542183 0 0 Z " fill="#C4EC7C" transform="translate(101,16)"/>
<path d="M0 0 C5.54949612 0.50449965 9.41926195 2.61616285 14.125 5.375 C14.82753906 5.77460937 15.53007813 6.17421875 16.25390625 6.5859375 C19.66249522 8.54474855 22.92703183 10.53207219 26 13 C26 11.02 26 9.04 26 7 C28 8 28 8 28.71875 9.93359375 C28.9765625 10.75988281 29.234375 11.58617188 29.5 12.4375 C32.00868154 19.12410117 36.77524016 23.31366961 42 28 C45.11332248 27.33131686 45.11332248 27.33131686 46.1875 24.9375 C46.455625 24.298125 46.72375 23.65875 47 23 C47.66 23.33 48.32 23.66 49 24 C48.34 26.97 47.68 29.94 47 33 C43.36371975 32.75147725 42.09708088 32.09325648 39.421875 29.5234375 C38.52219444 28.4817109 37.63194804 27.43178146 36.75 26.375 C32.25551326 21.22961391 27.63371645 16.91262181 22 13 C21.154375 12.38125 20.30875 11.7625 19.4375 11.125 C15.97524198 9.52703476 12.79378456 9.32150717 9 9 C9.66 8.01 10.32 7.02 11 6 C7.37 4.35 3.74 2.7 0 1 C0 0.67 0 0.34 0 0 Z " fill="#334B0F" transform="translate(50,76)"/>
<path d="M0 0 C0.33 0 0.66 0 1 0 C2.14399096 25.04812205 2.14399096 25.04812205 -4 33 C-7.82182258 35.75090908 -11.30075322 37 -16 37 C-16 35.35 -16 33.7 -16 32 C-15.46890625 31.78085937 -14.9378125 31.56171875 -14.390625 31.3359375 C-7.76482788 28.36158332 -4.91995589 24.71688531 -2.3125 17.9375 C-0.47355997 12.10086424 -0.27242965 6.07799951 0 0 Z " fill="#4F9814" transform="translate(144,29)"/>
<path d="M0 0 C0.66 0.33 1.32 0.66 2 1 C1.24964478 1.57041016 1.24964478 1.57041016 0.48413086 2.15234375 C-3.11503015 5.4358204 -4.82499355 7.86267999 -5.57763672 12.75390625 C-5.77598557 17.17451151 -5.61171485 21.5812351 -5.4375 26 C-5.40233733 27.55331501 -5.37040703 29.10670674 -5.34179688 30.66015625 C-5.26516327 34.4420184 -5.14466941 38.22015399 -5 42 C-6.29315061 41.04367001 -7.58446853 40.08486149 -8.875 39.125 C-9.59429687 38.59132812 -10.31359375 38.05765625 -11.0546875 37.5078125 C-13 36 -13 36 -15 34 C-10.25 34.875 -10.25 34.875 -8 36 C-7.66147306 26.90258767 -7.66147306 26.90258767 -10.51953125 18.55078125 C-12.26519577 16.85656789 -14.03289634 15.4259354 -16 14 C-17.01596042 13.01621932 -18.02123725 12.02079551 -19 11 C-15.56072421 12.2419607 -12.74792181 13.55740284 -10 16 C-10 16.66 -10 17.32 -10 18 C-9.34 18 -8.68 18 -8 18 C-8.02320312 17.443125 -8.04640625 16.88625 -8.0703125 16.3125 C-8.20011024 10.82390985 -7.53328434 6.2706649 -6 1 C-5.34 1.99 -4.68 2.98 -4 4 C-2.68 2.68 -1.36 1.36 0 0 Z " fill="#395910" transform="translate(104,37)"/>
<path d="M0 0 C8.25 0 16.5 0 25 0 C25 9.35135135 25 9.35135135 21 14 C18.07327328 16.37302167 16.31690796 16.95966626 12.5625 17.4375 C7.36363233 16.79904257 4.44661514 14.73593816 1.125 10.75 C0 8 0 8 0 0 Z M2 2 C2.32917961 9.47825081 2.32917961 9.47825081 5 13 C9.08561232 15.72374155 12.2255112 15.89954137 17 15 C20.14744519 13.76546291 20.14744519 13.76546291 22 11 C22.33 8.03 22.66 5.06 23 2 C16.07 2 9.14 2 2 2 Z " fill="#350F11" transform="translate(87,155)"/>
<path d="M0 0 C-6.435 2.97 -6.435 2.97 -13 6 C-11.35 6.66 -9.7 7.32 -8 8 C-8 8.33 -8 8.66 -8 9 C-8.7734375 9.00257812 -9.546875 9.00515625 -10.34375 9.0078125 C-17.20399653 9.26252462 -21.3149095 10.09459185 -26.4765625 14.72265625 C-28 16 -28 16 -30 16 C-30.226875 16.5775 -30.45375 17.155 -30.6875 17.75 C-32.33708262 20.57785592 -34.39710359 22.04782769 -37 24 C-37.66 24.66 -38.32 25.32 -39 26 C-38.41446208 22.7224158 -37.41525505 21.07460663 -35.125 18.6875 C-32.09796946 15.32574974 -30.55424214 12.2309925 -29 8 C-28.67 9.32 -28.34 10.64 -28 12 C-24.74183255 10.46585122 -21.81489477 8.60926667 -18.8125 6.625 C-6.07048872 -1.51762218 -6.07048872 -1.51762218 0 0 Z " fill="#344E10" transform="translate(151,75)"/>
<path d="M0 0 C0.99 1.32 1.98 2.64 3 4 C2.278125 4.144375 1.55625 4.28875 0.8125 4.4375 C-3.55102438 6.86168021 -5.26733205 10.40202514 -7 15 C-7.64652148 18.67148697 -7.92341862 22.27536023 -8 26 C-7.25363281 25.66226563 -6.50726563 25.32453125 -5.73828125 24.9765625 C-2.19078203 23.71140586 0.35365031 24.28502947 4 25 C1.39680887 26.73546076 -0.52267237 27.65175233 -3.4375 28.625 C-4.58025391 29.01558594 -4.58025391 29.01558594 -5.74609375 29.4140625 C-8 30 -8 30 -12 30 C-11.85816304 28.24967156 -11.71136571 26.49974466 -11.5625 24.75 C-11.48128906 23.77546875 -11.40007812 22.8009375 -11.31640625 21.796875 C-11.04838742 19.42772087 -10.64235825 17.28840128 -10 15 C-9.814375 14.2575 -9.62875 13.515 -9.4375 12.75 C-9.293125 12.1725 -9.14875 11.595 -9 11 C-8.67 11.33 -8.34 11.66 -8 12 C-5.87953208 8.46588679 -5.46800711 5.05606165 -5 1 C-4.01 1.33 -3.02 1.66 -2 2 C-1.34 1.34 -0.68 0.68 0 0 Z " fill="#1C2D0A" transform="translate(136,40)"/>
<path d="M0 0 C-0.36832592 27.37042646 -0.36832592 27.37042646 -5 37 C-5.66 36.34 -6.32 35.68 -7 35 C-6.69347955 32.0574037 -6.32728846 29.65457692 -5 27 C-4.84777027 25.33434251 -4.75082785 23.66343504 -4.68359375 21.9921875 C-4.64169922 21.00605469 -4.59980469 20.01992188 -4.55664062 19.00390625 C-4.51732422 17.97136719 -4.47800781 16.93882813 -4.4375 15.875 C-4.39431641 14.83472656 -4.35113281 13.79445313 -4.30664062 12.72265625 C-4.2003712 10.14857472 -4.09833417 7.57439492 -4 5 C-4.66 4.67 -5.32 4.34 -6 4 C-5.01 4 -4.02 4 -3 4 C-2.67 3.34 -2.34 2.68 -2 2 C-2.99 1.67 -3.98 1.34 -5 1 C-2 0 -2 0 0 0 Z " fill="#0E1406" transform="translate(149,23)"/>
<path d="M0 0 C0.88429688 -0.02578125 1.76859375 -0.0515625 2.6796875 -0.078125 C5.53464372 0.30496817 6.36495897 1.03537883 8.125 3.25 C6.375 7.125 6.375 7.125 4.125 8.25 C2.06640625 8.453125 2.06640625 8.453125 -0.3125 8.5 C-1.09496094 8.52578125 -1.87742187 8.5515625 -2.68359375 8.578125 C-5.35431509 8.17823089 -6.19477439 7.30300878 -7.875 5.25 C-5.66037881 0.67311621 -5.16430775 0.08981405 0 0 Z " fill="#EE6581" transform="translate(99.875,161.75)"/>
<path d="M0 0 C6.95312448 0.31605111 13.25429835 3.13026088 19 7 C19.8515625 9.19921875 19.8515625 9.19921875 20 11 C17.69 10.01 15.38 9.02 13 8 C13 9.32 13 10.64 13 12 C9.57143381 10.49017269 7.04321784 8.48286031 4.25 6 C3.45078125 5.29875 2.6515625 4.5975 1.828125 3.875 C0 2 0 2 0 0 Z " fill="#96CB36" transform="translate(50,45)"/>
<path d="M0 0 C1.32 0.66 2.64 1.32 4 2 C3.3709375 2.40089844 2.741875 2.80179687 2.09375 3.21484375 C-6.03360746 8.61268206 -13.22554469 14.79976519 -17 24 C-18.9375 22.875 -18.9375 22.875 -21 21 C-21.75 17.8125 -21.75 17.8125 -22 15 C-21.01 15.495 -21.01 15.495 -20 16 C-20 17.32 -20 18.64 -20 20 C-19.34 20 -18.68 20 -18 20 C-17.75636719 19.278125 -17.51273437 18.55625 -17.26171875 17.8125 C-13.86847143 10.24860504 -6.87268198 4.38681828 0 0 Z " fill="#152008" transform="translate(122,69)"/>
<path d="M0 0 C9.51189471 3.26654035 15.69369971 11.36003074 21.015625 19.51953125 C22 22 22 22 21.171875 24.32421875 C20.78515625 24.87722656 20.3984375 25.43023437 20 26 C19.6596875 25.29875 19.319375 24.5975 18.96875 23.875 C13.8968349 13.94699598 7.7534813 7.39554285 -2 2 C-1.34 1.34 -0.68 0.68 0 0 Z " fill="#141B0A" transform="translate(77,72)"/>
<path d="M0 0 C3.02419525 0.58803797 6.01758453 1.22678118 9 2 C9.33 3.65 9.66 5.3 10 7 C9.67 7 9.34 7 9 7 C8.67 8.65 8.34 10.3 8 12 C6.68 11.34 5.36 10.68 4 10 C4 9.34 4 8.68 4 8 C3.34 8 2.68 8 2 8 C1.67 7.01 1.34 6.02 1 5 C0.34 4.67 -0.32 4.34 -1 4 C-0.67 2.68 -0.34 1.36 0 0 Z " fill="#8EC032" transform="translate(63,53)"/>
<path d="M0 0 C7.28592866 0 13.02433506 2.95586312 19 7 C19.99 8.485 19.99 8.485 21 10 C16.96552954 10.27279338 14.64440421 9.5702298 11.125 7.625 C7.10063744 5.49835332 3.41795827 4.05646828 -1 3 C-1.33 3.66 -1.66 4.32 -2 5 C-2 2 -2 2 0 0 Z " fill="#1D230E" transform="translate(51,42)"/>
<path d="M0 0 C1.79236067 0.47656412 3.58386897 0.95633498 5.375 1.4375 C6.37273437 1.70433594 7.37046875 1.97117188 8.3984375 2.24609375 C11 3 11 3 13 4 C14.53668865 4.22467831 16.07968054 4.40796805 17.625 4.5625 C18.44226563 4.64628906 19.25953125 4.73007813 20.1015625 4.81640625 C20.72804688 4.87699219 21.35453125 4.93757812 22 5 C21.01 6.485 21.01 6.485 20 8 C12.63904818 7.68676801 6.69116911 6.06085395 0 3 C-0.33 3.66 -0.66 4.32 -1 5 C-0.67 3.35 -0.34 1.7 0 0 Z " fill="#2A1A0D" transform="translate(68,174)"/>
<path d="M0 0 C0.99 0.33 1.98 0.66 3 1 C-0.33333333 4.33333333 -3.66666667 7.66666667 -7 11 C-7.556875 11.5775 -8.11375 12.155 -8.6875 12.75 C-10.29381051 14.27981953 -11.98637107 15.09733876 -14 16 C-11.14918842 9.70855375 -5.80996296 3.71192078 0 0 Z " fill="#BEE278" transform="translate(101,16)"/>
<path d="M0 0 C2.625 0.375 2.625 0.375 5 1 C5.625 3.375 5.625 3.375 6 6 C5.34 6.66 4.68 7.32 4 8 C1.375 7.625 1.375 7.625 -1 7 C-1.625 4.625 -1.625 4.625 -2 2 C-1.34 1.34 -0.68 0.68 0 0 Z " fill="#DADADB" transform="translate(83,140)"/>
<path d="M0 0 C-0.28159633 2.93878727 -0.57481385 5.87560413 -0.875 8.8125 C-0.95363281 9.64587891 -1.03226563 10.47925781 -1.11328125 11.33789062 C-1.19707031 12.14033203 -1.28085938 12.94277344 -1.3671875 13.76953125 C-1.47716064 14.87711792 -1.47716064 14.87711792 -1.58935547 16.00708008 C-2 18 -2 18 -4 21 C-4 15.72 -4 10.44 -4 5 C-4.66 4.67 -5.32 4.34 -6 4 C-5.01 4 -4.02 4 -3 4 C-2.67 3.34 -2.34 2.68 -2 2 C-2.99 1.67 -3.98 1.34 -5 1 C-2 0 -2 0 0 0 Z " fill="#202F0F" transform="translate(149,23)"/>
<path d="M0 0 C1.19921875 1.640625 1.19921875 1.640625 1.19921875 4.640625 C0.58175781 4.44726562 -0.03570312 4.25390625 -0.671875 4.0546875 C-6.34426993 2.31066349 -11.9927116 0.85844606 -17.80078125 -0.359375 C-17.80078125 -0.689375 -17.80078125 -1.019375 -17.80078125 -1.359375 C-12.40935714 -2.63629124 -4.67845869 -3.53167814 0 0 Z " fill="#161E09" transform="translate(71.80078125,67.359375)"/>
<path d="M0 0 C-1.16015625 0.52787109 -1.16015625 0.52787109 -2.34375 1.06640625 C-9.13668507 4.28632473 -14.66212375 7.69352302 -20 13 C-20.33 12.01 -20.66 11.02 -21 10 C-7.38022289 -2.73153077 -7.38022289 -2.73153077 0 0 Z " fill="#B7D775" transform="translate(145,29)"/>
<path d="M0 0 C0.66 0.33 1.32 0.66 2 1 C2.625 3.0625 2.625 3.0625 3 5 C2.67 4.34 2.34 3.68 2 3 C1.22914063 3.28875 0.45828125 3.5775 -0.3359375 3.875 C-1.33882812 4.24625 -2.34171875 4.6175 -3.375 5 C-4.37273437 5.37125 -5.37046875 5.7425 -6.3984375 6.125 C-9 7 -9 7 -11 7 C-11 6.34 -11 5.68 -11 5 C-12.32 4.67 -13.64 4.34 -15 4 C-14.16855469 3.79503906 -13.33710937 3.59007812 -12.48046875 3.37890625 C-11.39378906 3.10949219 -10.30710937 2.84007812 -9.1875 2.5625 C-7.56908203 2.16224609 -7.56908203 2.16224609 -5.91796875 1.75390625 C-3.9259157 1.23922588 -1.95188476 0.65062825 0 0 Z " fill="#1D1309" transform="translate(128,174)"/>
<path d="M0 0 C2.85844182 2.85844182 2.70789309 5.77691961 3.2421875 9.6875 C3.78353296 12.12330866 3.78353296 12.12330866 5.83984375 13.28125 C8.21249511 14.14482559 8.21249511 14.14482559 11.6875 14.5 C12.780625 14.665 13.87375 14.83 15 15 C15.33 15.66 15.66 16.32 16 17 C10.29410528 17.45647158 7.39901992 16.69917584 3 13 C-0.53295958 8.7604485 -0.26876031 5.28561944 0 0 Z " fill="#44281A" transform="translate(87,155)"/>
<path d="M0 0 C-0.45363171 1.58468677 -0.91311452 3.16769924 -1.375 4.75 C-1.63023437 5.63171875 -1.88546875 6.5134375 -2.1484375 7.421875 C-4.15752212 13.50442478 -4.15752212 13.50442478 -7.125 15.25 C-7.74375 15.4975 -8.3625 15.745 -9 16 C-7.23570801 11.02790438 -4.6060834 6.56561939 -2 2 C-2.99 2.33 -3.98 2.66 -5 3 C-6.39439664 3.06665376 -7.79169875 3.08538199 -9.1875 3.0625 C-11.0746875 3.0315625 -11.0746875 3.0315625 -13 3 C-13 2.67 -13 2.34 -13 2 C-11.20873548 1.66451233 -9.41697413 1.33167645 -7.625 1 C-6.62726563 0.814375 -5.62953125 0.62875 -4.6015625 0.4375 C-2 0 -2 0 0 0 Z " fill="#539A16" transform="translate(164,61)"/>
<path d="M0 0 C0.66 0 1.32 0 2 0 C2.66 7.26 3.32 14.52 4 22 C-4 16 -4 16 -6 14 C-1.25 14.875 -1.25 14.875 1 16 C0.67 10.72 0.34 5.44 0 0 Z " fill="#203109" transform="translate(95,57)"/>
<path d="M0 0 C1.66611905 -0.042721 3.33382885 -0.04063832 5 0 C6 1 6 1 6.0625 3.5625 C6.041875 4.366875 6.02125 5.17125 6 6 C3.625 6.625 3.625 6.625 1 7 C0.34 6.34 -0.32 5.68 -1 5 C-0.625 2.375 -0.625 2.375 0 0 Z " fill="#EAEAEA" transform="translate(113,140)"/>
<path d="M0 0 C0.99 1.32 1.98 2.64 3 4 C5.08334635 5.2516467 5.08334635 5.2516467 7 6 C5.8125 8 5.8125 8 4 10 C2.35 10 0.7 10 -1 10 C-0.67 6.7 -0.34 3.4 0 0 Z " fill="#4C8E15" transform="translate(101,99)"/>
<path d="M0 0 C-3.16351048 2.10900699 -5.88040844 3.0584157 -9.5 4.1875 C-10.6446875 4.55230469 -11.789375 4.91710937 -12.96875 5.29296875 C-16 6 -16 6 -19 5 C-13.1453499 0.0460653 -7.34816227 -0.29392649 0 0 Z " fill="#C3EB78" transform="translate(149,65)"/>
<path d="M0 0 C0.66 0.33 1.32 0.66 2 1 C1.32584613 6.2584002 -0.24265549 11.02638346 -2 16 C-2.66 15.67 -3.32 15.34 -4 15 C-4 12.03 -4 9.06 -4 6 C-3.01 6 -2.02 6 -1 6 C-0.67 4.02 -0.34 2.04 0 0 Z " fill="#080C03" transform="translate(102,90)"/>
<path d="M0 0 C0.99 1.32 1.98 2.64 3 4 C2.278125 4.144375 1.55625 4.28875 0.8125 4.4375 C-3.46525857 6.81403254 -4.91903688 10.69639116 -7 15 C-7.66 14.34 -8.32 13.68 -9 13 C-8.525625 12.319375 -8.05125 11.63875 -7.5625 10.9375 C-5.7774364 7.58158044 -5.36846914 4.75838519 -5 1 C-4.01 1.33 -3.02 1.66 -2 2 C-1.34 1.34 -0.68 0.68 0 0 Z " fill="#4E7B16" transform="translate(136,40)"/>
<path d="M0 0 C1.32435978 3.97307934 0.18129186 6.80974568 -0.9375 10.6875 C-1.13279297 11.38939453 -1.32808594 12.09128906 -1.52929688 12.81445312 C-2.01199136 14.54508944 -2.50500846 16.27284066 -3 18 C-3.33 18 -3.66 18 -4 18 C-4.474377 10.71304215 -4.28670939 6.02818509 0 0 Z " fill="#BBE970" transform="translate(82,43)"/>
<path d="M0 0 C11.52164009 -0.18451025 11.52164009 -0.18451025 17 1 C16.67 1.99 16.34 2.98 16 4 C10.58201328 3.30834212 5.3177215 2.24200752 0 1 C0 0.67 0 0.34 0 0 Z " fill="#BEE474" transform="translate(43,66)"/>
<path d="M0 0 C7.45781112 1.20287276 12.72771068 3.83593319 19 8 C18.67 8.99 18.34 9.98 18 11 C17.53851563 10.61328125 17.07703125 10.2265625 16.6015625 9.828125 C11.41096546 5.68385384 6.25684545 3.17963878 0 1 C0 0.67 0 0.34 0 0 Z " fill="#B7D870" transform="translate(51,45)"/>
<path d="M0 0 C4.35713369 0.72618895 5.96436694 2.76894848 8.671875 6.078125 C10.39873108 8.57698733 11.28323322 11.0612562 12 14 C2.38461538 4.76923077 2.38461538 4.76923077 0 0 Z " fill="#C1E17B" transform="translate(84,82)"/>
<path d="M0 0 C0.66 0.33 1.32 0.66 2 1 C2 3.64 2 6.28 2 9 C-0.31 8.67 -2.62 8.34 -5 8 C-5 7.01 -5 6.02 -5 5 C-5.33 4.01 -5.66 3.02 -6 2 C-4 2 -4 2 -1.875 4 C-1.25625 4.66 -0.6375 5.32 0 6 C0 4.02 0 2.04 0 0 Z " fill="#467A11" transform="translate(71,59)"/>
<path d="M0 0 C1.423125 0.2784375 1.423125 0.2784375 2.875 0.5625 C5.89868793 1.28686632 5.89868793 1.28686632 8 0 C8.28571429 7.42857143 8.28571429 7.42857143 6 11 C5.7525 10.113125 5.505 9.22625 5.25 8.3125 C3.96065232 4.89572865 2.40019871 2.7202252 0 0 Z " fill="#040501" transform="translate(68,51)"/>
<path d="M0 0 C0.66 0.33 1.32 0.66 2 1 C0.8758824 2.29243468 -0.24932592 3.58392075 -1.375 4.875 C-2.00148438 5.59429687 -2.62796875 6.31359375 -3.2734375 7.0546875 C-4.47426834 8.4076598 -5.7208345 9.7208345 -7 11 C-7.1953125 4.9453125 -7.1953125 4.9453125 -7 3 C-6.34 2.34 -5.68 1.68 -5 1 C-4.67 1.99 -4.34 2.98 -4 4 C-2.68 2.68 -1.36 1.36 0 0 Z " fill="#25390C" transform="translate(104,37)"/>
<path d="M0 0 C0.99 0.33 1.98 0.66 3 1 C2.34 3.97 1.68 6.94 1 10 C0.01 10 -0.98 10 -2 10 C-2.625 8.125 -2.625 8.125 -3 6 C-2.34 5.34 -1.68 4.68 -1 4 C-0.3574765 1.93125966 -0.3574765 1.93125966 0 0 Z " fill="#4E9114" transform="translate(96,99)"/>
<path d="M0 0 C0.99 0.33 1.98 0.66 3 1 C0.69 3.31 -1.62 5.62 -4 8 C-4.99 7.34 -5.98 6.68 -7 6 C-5.90716423 4.96704564 -4.80029421 3.94892165 -3.6875 2.9375 C-3.07261719 2.36902344 -2.45773438 1.80054687 -1.82421875 1.21484375 C-0.92123047 0.61349609 -0.92123047 0.61349609 0 0 Z " fill="#B6DD6E" transform="translate(101,16)"/>
<path d="M0 0 C3.37503669 1.1858237 5.64722731 2.27573689 8 5 C6.375 5.75 6.375 5.75 4 6 C0.75 4.0625 0.75 4.0625 -2 2 C-1.34 1.34 -0.68 0.68 0 0 Z " fill="#1C260C" transform="translate(77,72)"/>
<path d="M0 0 C0 3.3 0 6.6 0 10 C-0.66 8.68 -1.32 7.36 -2 6 C-2.66 6.99 -3.32 7.98 -4 9 C-3.4140625 2.84765625 -3.4140625 2.84765625 -3 1 C-1 0 -1 0 0 0 Z " fill="#201A0C" transform="translate(136,161)"/>
<path d="M0 0 C0 3.3 0 6.6 0 10 C-0.66 8.68 -1.32 7.36 -2 6 C-2.66 6.99 -3.32 7.98 -4 9 C-3.4140625 2.84765625 -3.4140625 2.84765625 -3 1 C-1 0 -1 0 0 0 Z " fill="#1F1B0D" transform="translate(139,147)"/>
<path d="M0 0 C2.73058469 1.04404709 4.1850125 2.66465669 6.125 4.8125 C2.52203406 5.22426754 1.34097933 4.9660853 -1.6875 2.8125 C-2.409375 2.1525 -3.13125 1.4925 -3.875 0.8125 C-1.875 -0.1875 -1.875 -0.1875 0 0 Z " fill="#232716" transform="translate(65.875,47.1875)"/>
<path d="M0 0 C0.66 0.33 1.32 0.66 2 1 C1.67 2.65 1.34 4.3 1 6 C0.01 6.33 -0.98 6.66 -2 7 C-2.66 7.66 -3.32 8.32 -4 9 C-3.46930939 5.17902761 -2.50298434 2.93828597 0 0 Z " fill="#241D1A" transform="translate(150,113)"/>
<path d="M0 0 C-0.66 2.31 -1.32 4.62 -2 7 C-2.33 6.01 -2.66 5.02 -3 4 C-2.67 3.34 -2.34 2.68 -2 2 C-2.99 2.33 -3.98 2.66 -5 3 C-6.39439664 3.06665376 -7.79169875 3.08538199 -9.1875 3.0625 C-11.0746875 3.0315625 -11.0746875 3.0315625 -13 3 C-13 2.67 -13 2.34 -13 2 C-11.20873548 1.66451233 -9.41697413 1.33167645 -7.625 1 C-6.62726563 0.814375 -5.62953125 0.62875 -4.6015625 0.4375 C-2 0 -2 0 0 0 Z " fill="#4E7C17" transform="translate(164,61)"/>
<path d="M0 0 C0.66 0.99 1.32 1.98 2 3 C1.27683594 3.61488281 1.27683594 3.61488281 0.5390625 4.2421875 C-0.09257813 4.78101562 -0.72421875 5.31984375 -1.375 5.875 C-2.00148438 6.40867187 -2.62796875 6.94234375 -3.2734375 7.4921875 C-4.55836651 8.61432007 -5.79371975 9.79371975 -7 11 C-6.40716379 7.60807637 -5.23256811 5.7892243 -2.9375 3.25 C-2.38964844 2.63640625 -1.84179688 2.0228125 -1.27734375 1.390625 C-0.85582031 0.93171875 -0.43429688 0.4728125 0 0 Z " fill="#384F14" transform="translate(119,90)"/>
<path d="M0 0 C1.98 0.66 3.96 1.32 6 2 C6 2.66 6 3.32 6 4 C3.03 3.505 3.03 3.505 0 3 C-0.33 3.66 -0.66 4.32 -1 5 C-0.67 3.35 -0.34 1.7 0 0 Z " fill="#1D1109" transform="translate(68,174)"/>
<path d="M0 0 C0.33 0.66 0.66 1.32 1 2 C-0.98 2.33 -2.96 2.66 -5 3 C-5 2.34 -5 1.68 -5 1 C-6.32 0.67 -7.64 0.34 -9 0 C-5.67032582 -0.83241855 -3.24733335 -1.2757381 0 0 Z " fill="#3C2710" transform="translate(122,178)"/>
<path d="M0 0 C-2.39509338 2.89932357 -4.31245243 3.50168276 -8 4 C-7.67 3.01 -7.34 2.02 -7 1 C-4.53721199 -0.231394 -2.7204945 -0.07159196 0 0 Z " fill="#D49E39" transform="translate(131,172)"/>
<path d="M0 0 C3.3 0.66 6.6 1.32 10 2 C7 4 7 4 4.95703125 3.7578125 C2.97135417 3.171875 0.98567708 2.5859375 -1 2 C-0.67 1.34 -0.34 0.68 0 0 Z " fill="#ECC14F" transform="translate(92,170)"/>
<path d="M0 0 C0.75 1.625 0.75 1.625 1 4 C-0.9375 7.25 -0.9375 7.25 -3 10 C-4 7 -4 7 -3.22265625 5.17578125 C-2.1484375 3.45052083 -1.07421875 1.72526042 0 0 Z " fill="#B7D773" transform="translate(108,86)"/>
<path d="M0 0 C0.625 1.8125 0.625 1.8125 1 4 C0.01 5.485 0.01 5.485 -1 7 C-1.33 6.34 -1.66 5.68 -2 5 C-2.99 5.495 -2.99 5.495 -4 6 C-3.67 4.35 -3.34 2.7 -3 1 C-2.01 0.67 -1.02 0.34 0 0 Z " fill="#1F2815" transform="translate(164,67)"/>
<path d="M0 0 C-1 2 -1 2 -3.375 3.1875 C-6 4 -6 4 -9 3 C-5.92807025 0.26939578 -4.09590633 -0.34132553 0 0 Z " fill="#D3F88B" transform="translate(139,67)"/>
<path d="M0 0 C0.33 0.99 0.66 1.98 1 3 C-2.63 2.34 -6.26 1.68 -10 1 C-10 0.67 -10 0.34 -10 0 C-3.15175097 -1.40077821 -3.15175097 -1.40077821 0 0 Z " fill="#36451C" transform="translate(64,66)"/>
<path d="M0 0 C1.485 0.99 1.485 0.99 3 2 C2.855625 2.556875 2.71125 3.11375 2.5625 3.6875 C1.97230872 6.11384195 1.476571 8.54906345 1 11 C0.67 11 0.34 11 0 11 C0 7.37 0 3.74 0 0 Z " fill="#68A41F" transform="translate(70,54)"/>
<path d="M0 0 C0.99 1.32 1.98 2.64 3 4 C-0.465 5.485 -0.465 5.485 -4 7 C-4 6.01 -4 5.02 -4 4 C-3.34 4 -2.68 4 -2 4 C-1.34 2.68 -0.68 1.36 0 0 Z " fill="#36550F" transform="translate(136,40)"/>
<path d="M0 0 C2.97 0.33 5.94 0.66 9 1 C8.67 1.66 8.34 2.32 8 3 C2.25 2.25 2.25 2.25 0 0 Z " fill="#D3F88D" transform="translate(57,68)"/>
</svg>
